#!OML:ASF H:\ManfredETheater\Project 1\Capture day 1\Session 1\subject.ASF
:FULLY-SPECIFIED
:DEGREES
258
root 1.60861 18.0065 -26.81 -178.494 -8.40103 -180.771
lowerback 7.51645 -1.44672 -2.13986
upperback -2.83672 -2.084 1.44329
thorax -7.0697 -0.898869 3.00084
lowerneck -20.0892 -4.77113 -5.25893
upperneck 16.104 -5.75415 3.47328
head 8.57545 -2.69405 1.26548
rclavicle 2.86995e-014 1.98785e-015
rhumerus -42.1738 -12.6067 -78.1183
rradius 36.9038
rwrist 5.02207
rhand -21.262 -9.06888
rfingers 7.12502
rthumb 5.12138 -38.987
lclavicle 2.86995e-014 1.98785e-015
lhumerus -34.4931 9.68632 81.9369
lradius 35.7435
lwrist -11.2624
lhand -8.66444 6.36993
lfingers 7.12502
lthumb 17.2694 35.6226
rfemur -16.7637 -8.50424 17.9983
rtibia 40.8884
rfoot -13.0005 -9.31729
rtoes -29.1439
lfemur -17.8591 -5.30638 -20.5993
ltibia 36.9917
lfoot -19.5586 -9.74961
ltoes 9.66602
259
root 1.61794 18.0041 -26.8383 -178.406 -8.2336 -180.787
lowerback 7.2946 -1.41813 -2.14921
upperback -2.93918 -2.04882 1.40302
thorax -7.05442 -0.882797 2.9537
lowerneck -20.0425 -4.73615 -5.25803
upperneck 16.3363 -5.7227 3.46041
head 8.64473 -2.68377 1.26448
rclavicle 6.6655e-015 3.97569e-016
rhumerus -42.2292 -12.5822 -78.2593
rradius 36.6891
rwrist 5.0659
rhand -21.2122 -9.09629
rfingers 7.12502
rthumb 5.16946 -39.0132
lclavicle 6.6655e-015 3.97569e-016
lhumerus -34.5874 9.59581 81.8294
lradius 36.0052
lwrist -10.8816
lhand -8.96808 6.33368
lfingers 7.12502
lthumb 16.9772 35.6117
rfemur -16.2754 -8.31449 18.1218
rtibia 40.0138
rfoot -13.0928 -9.43335
rtoes -28.7467
lfemur -17.8729 -5.3368 -20.5754
ltibia 37.0631
lfoot -19.6203 -9.57959
ltoes 9.94339
260
root 1.62816 18.0012 -26.8668 -178.315 -8.06679 -180.799
lowerback 7.07351 -1.38751 -2.1511
upperback -3.04232 -2.01055 1.36415
thorax -7.04059 -0.865696 2.90371
lowerneck -20.0004 -4.70153 -5.25472
upperneck 16.5703 -5.69102 3.43964
head 8.71516 -2.67425 1.26037
rclavicle 2.33448e-014 -5.56597e-015
rhumerus -42.2816 -12.5695 -78.3878
rradius 36.4799
rwrist 5.09063
rhand -21.1603 -9.12801
rfingers 7.12502
rthumb 5.21958 -39.0437
lclavicle 2.33448e-014 -5.56597e-015
lhumerus -34.6787 9.52673 81.713
lradius 36.2462
lwrist -10.548
lhand -9.25364 6.28722
lfingers 7.12502
lthumb 16.7023 35.5887
rfemur -15.768 -8.03483 18.2427
rtibia 39.036
rfoot -13.2709 -9.72756
rtoes -28.4447
lfemur -17.894 -5.38758 -20.5453
ltibia 37.1439
lfoot -19.6778 -9.37886
ltoes 10.2241
261
root 1.63909 17.9977 -26.8952 -178.225 -7.89623 -180.796
lowerback 6.85317 -1.35348 -2.13594
upperback -3.14235 -1.96614 1.33014
thorax -7.02449 -0.846532 2.84867
lowerneck -19.9621 -4.66755 -5.24971
upperneck 16.8007 -5.65907 3.41188
head 8.78488 -2.66537 1.2536
rclavicle 7.66563e-015 -2.50469e-014
rhumerus -42.329 -12.5642 -78.5054
rradius 36.2785
rwrist 5.09689
rhand -21.1068 -9.17447
rfingers 7.12502
rthumb 5.27125 -39.0889
lclavicle 7.66563e-015 -2.50469e-014
lhumerus -34.7583 9.48846 81.5904
lradius 36.4562
lwrist -10.2568
lhand -9.52849 6.22674
lfingers 7.12502
lthumb 16.4377 35.5503
rfemur -15.2444 -7.67841 18.3751
rtibia 37.9907
rfoot -13.4918 -10.1897
rtoes -28.25
lfemur -17.919 -5.45706 -20.4992
ltibia 37.2381
lfoot -19.7393 -9.14058
ltoes 10.4774
262
root 1.6506 17.9941 -26.9235 -178.138 -7.71461 -180.77
lowerback 6.63601 -1.31403 -2.0955
upperback -3.23713 -1.912 1.30424
thorax -7.00558 -0.823848 2.78699
lowerneck -19.9331 -4.63357 -5.24199
upperneck 17.026 -5.62552 3.37637
head 8.85422 -2.65637 1.24385
rclavicle -9.77772e-015 1.63003e-014
rhumerus -42.3632 -12.5629 -78.6134
rradius 36.0761
rwrist 5.08525
rhand -21.0631 -9.22291
rfingers 7.12502
rthumb 5.31341 -39.1363
lclavicle -9.77772e-015 1.63003e-014
lhumerus -34.8212 9.49585 81.4591
lradius 36.6319
lwrist -10.0306
lhand -9.77759 6.1633
lfingers 7.12502
lthumb 16.1978 35.5066
rfemur -14.7097 -7.25262 18.5322
rtibia 36.9165
rfoot -13.7206 -10.7688
rtoes -28.0563
lfemur -17.9494 -5.5425 -20.4274
ltibia 37.3465
lfoot -19.8025 -8.86348
ltoes 10.715
263
root 1.66229 17.9905 -26.9514 -178.058 -7.51747 -180.717
lowerback 6.42389 -1.26858 -2.02395
upperback -3.325 -1.84685 1.28675
thorax -6.98329 -0.797268 2.71563
lowerneck -19.9168 -4.59996 -5.23351
upperneck 17.2465 -5.59078 3.33706
head 8.92407 -2.64707 1.23266
rclavicle 1.20513e-015 3.97569e-015
rhumerus -42.379 -12.5638 -78.7127
rradius 35.8669
rwrist 5.06045
rhand -21.025 -9.2722
rfingers 7.12502
rthumb 5.35017 -39.1847
lclavicle 1.20513e-015 3.97569e-015
lhumerus -34.8691 9.53668 81.3251
lradius 36.7739
lwrist -9.84464
lhand -10.0285 6.09628
lfingers 7.12502
lthumb 15.9562 35.4591
rfemur -14.17 -6.77058 18.7157
rtibia 35.8525
rfoot -13.9191 -11.4013
rtoes -27.9079
lfemur -17.9807 -5.64488 -20.3287
ltibia 37.4653
lfoot -19.8653 -8.54709
ltoes 10.9586
